<?xml version="1.0" encoding="UTF-8"?><svg id="Ebene_1" xmlns="http://www.w3.org/2000/svg" viewBox="0 0 32 32"><defs><style>.cls-1{fill:#5e9cd7;}.cls-2{fill:#23334d;}</style></defs><rect class="cls-2" width="32" height="32" rx="5" ry="5"/><path class="cls-1" d="M23.3,8.08c-.73-.73-1.92-.73-2.65,0l-1.01,1,3.27,3.27,1.01-1.01c.73-.73,.73-1.92,0-2.65l-.63-.62Zm-10,7.36c-.2,.2-.36,.45-.45,.73l-.99,2.97c-.1,.29-.02,.61,.19,.82s.53,.29,.82,.19l2.97-.99c.27-.09,.52-.25,.73-.45l5.59-5.6-3.28-3.28-5.59,5.6Zm-2.55-5.94c-1.77,0-3.21,1.44-3.21,3.21v8.56c0,1.77,1.44,3.21,3.21,3.21h8.56c1.77,0,3.21-1.44,3.21-3.21v-3.21c0-.59-.48-1.07-1.07-1.07s-1.07,.48-1.07,1.07v3.21c0,.59-.48,1.07-1.07,1.07H10.74c-.59,0-1.07-.48-1.07-1.07V12.7c0-.59,.48-1.07,1.07-1.07h3.21c.59,0,1.07-.48,1.07-1.07s-.48-1.07-1.07-1.07h-3.21Z"/></svg>